HIERARCHY
ROOT Root
{
  OFFSET 0.0 0.0 0.0
  CHANNELS 6 Xposition Yposition Zposition Zrotation Yrotation Xrotation
  JOINT Hips
  {
    OFFSET 0.0 100.0 0.0
    CHANNELS 6 Xposition Yposition Zposition Zrotation Yrotation Xrotation
    JOINT Spine1
    {
      OFFSET -0.013727 5.003763 -0.053727
      CHANNELS 3 Zrotation Yrotation Xrotation
      JOINT Spine2
      {
        OFFSET -0.0 7.125301 -0.029825
        CHANNELS 3 Zrotation Yrotation Xrotation
        JOINT Chest
        {
          OFFSET -1e-06 7.550063 -0.815971
          CHANNELS 3 Zrotation Yrotation Xrotation
          JOINT Neck1
          {
            OFFSET -0.181677 26.311295 -0.553348
            CHANNELS 3 Zrotation Yrotation Xrotation
            JOINT Neck2
            {
              OFFSET -3e-06 7.709397 2.302585
              CHANNELS 3 Zrotation Yrotation Xrotation
              JOINT Head
              {
                OFFSET -5e-06 6.128916 1.953709
                CHANNELS 3 Zrotation Yrotation Xrotation
                JOINT HeadEnd
                {
                  OFFSET 0.003598 16.065403 -1.835379
                  CHANNELS 3 Zrotation Yrotation Xrotation
                }
                JOINT Jaw
                {
                  OFFSET 0.002637 0.475592 3.094941
                  CHANNELS 3 Zrotation Yrotation Xrotation
                }
                JOINT LeftEye
                {
                  OFFSET 3.206381 5.380205 7.586883
                  CHANNELS 3 Zrotation Yrotation Xrotation
                }
                JOINT RightEye
                {
                  OFFSET -3.22244 5.361869 7.558234
                  CHANNELS 3 Zrotation Yrotation Xrotation
                }
              }
            }
          }
          JOINT LeftShoulder
          {
            OFFSET 1.621652 23.237164 5.113413
            CHANNELS 3 Zrotation Yrotation Xrotation
            JOINT LeftArm
            {
              OFFSET 14.919846 2e-06 -5.502326
              CHANNELS 3 Zrotation Yrotation Xrotation
              JOINT LeftForeArm
              {
                OFFSET 28.739307 0.0 -0.002588
                CHANNELS 3 Zrotation Yrotation Xrotation
                JOINT LeftHand
                {
                  OFFSET 27.093981 -1e-06 0.002609
                  CHANNELS 3 Zrotation Yrotation Xrotation
                  JOINT LeftHandThumb1
                  {
                    OFFSET 2.276482 -1.392045 3.191413
                    CHANNELS 3 Zrotation Yrotation Xrotation
                    JOINT LeftHandThumb2
                    {
                      OFFSET 4.012836 -1.828127 1.641654
                      CHANNELS 3 Zrotation Yrotation Xrotation
                      JOINT LeftHandThumb3
                      {
                        OFFSET 2.798515 0.0 -3e-06
                        CHANNELS 3 Zrotation Yrotation Xrotation
                        JOINT LeftHandThumbEnd
                        {
                          OFFSET 3.180793 -4e-06 4e-06
                          CHANNELS 3 Zrotation Yrotation Xrotation
                        }
                      }
                    }
                  }
                  JOINT LeftHandIndex1
                  {
                    OFFSET 3.247555 -0.531998 2.296169
                    CHANNELS 3 Zrotation Yrotation Xrotation
                    JOINT LeftHandIndex2
                    {
                      OFFSET 6.364578 0.01206 0.1786
                      CHANNELS 3 Zrotation Yrotation Xrotation
                      JOINT LeftHandIndex3
                      {
                        OFFSET 3.662364 0.0 0.0
                        CHANNELS 3 Zrotation Yrotation Xrotation
                        JOINT LeftHandIndex4
                        {
                          OFFSET 2.329242 4e-06 4e-06
                          CHANNELS 3 Zrotation Yrotation Xrotation
                          JOINT LeftHandIndexEnd
                          {
                            OFFSET 2.759615 -0.180537 -0.113024
                            CHANNELS 3 Zrotation Yrotation Xrotation
                          }
                        }
                      }
                    }
                  }
                  JOINT LeftHandMiddle1
                  {
                    OFFSET 3.163495 0.240981 1.000332
                    CHANNELS 3 Zrotation Yrotation Xrotation
                    JOINT LeftHandMiddle2
                    {
                      OFFSET 6.19078 -0.259278 -1.002548
                      CHANNELS 3 Zrotation Yrotation Xrotation
                      JOINT LeftHandMiddle3
                      {
                        OFFSET 4.35652 -4e-06 -1e-06
                        CHANNELS 3 Zrotation Yrotation Xrotation
                        JOINT LeftHandMiddle4
                        {
                          OFFSET 2.996877 -8e-06 0.0
                          CHANNELS 3 Zrotation Yrotation Xrotation
                          JOINT LeftHandMiddleEnd
                          {
                            OFFSET 2.304287 -0.294569 -0.031741
                            CHANNELS 3 Zrotation Yrotation Xrotation
                          }
                        }
                      }
                    }
                  }
                  JOINT LeftHandRing1
                  {
                    OFFSET 2.882643 -0.053652 -0.322543
                    CHANNELS 3 Zrotation Yrotation Xrotation
                    JOINT LeftHandRing2
                    {
                      OFFSET 5.854541 -0.486202 -1.373841
                      CHANNELS 3 Zrotation Yrotation Xrotation
                      JOINT LeftHandRing3
                      {
                        OFFSET 4.350578 0.0 3e-06
                        CHANNELS 3 Zrotation Yrotation Xrotation
                        JOINT LeftHandRing4
                        {
                          OFFSET 2.651321 7e-06 2e-06
                          CHANNELS 3 Zrotation Yrotation Xrotation
                          JOINT LeftHandRingEnd
                          {
                            OFFSET 1.936105 0.077687 -7.1e-05
                            CHANNELS 3 Zrotation Yrotation Xrotation
                          }
                        }
                      }
                    }
                  }
                  JOINT LeftHandPinky1
                  {
                    OFFSET 2.8655 -0.310005 -1.600378
                    CHANNELS 3 Zrotation Yrotation Xrotation
                    JOINT LeftHandPinky2
                    {
                      OFFSET 5.087849 -1.331141 -1.77123
                      CHANNELS 3 Zrotation Yrotation Xrotation
                      JOINT LeftHandPinky3
                      {
                        OFFSET 3.070974 4e-06 0.0
                        CHANNELS 3 Zrotation Yrotation Xrotation
                        JOINT LeftHandPinky4
                        {
                          OFFSET 1.549672 0.0 1e-06
                          CHANNELS 3 Zrotation Yrotation Xrotation
                          JOINT LeftHandPinkyEnd
                          {
                            OFFSET 1.944893 -0.157802 0.057219
                            CHANNELS 3 Zrotation Yrotation Xrotation
                          }
                        }
                      }
                    }
                  }
                }
              }
            }
          }
          JOINT RightShoulder
          {
            OFFSET -1.380118 23.180309 5.214158
            CHANNELS 3 Zrotation Yrotation Xrotation
            JOINT RightArm
            {
              OFFSET -15.037196 1.2e-05 -5.545604
              CHANNELS 3 Zrotation Yrotation Xrotation
              JOINT RightForeArm
              {
                OFFSET -28.736639 2e-06 -0.002597
                CHANNELS 3 Zrotation Yrotation Xrotation
                JOINT RightHand
                {
                  OFFSET -27.133619 -0.0 0.002613
                  CHANNELS 3 Zrotation Yrotation Xrotation
                  JOINT RightHandThumb1
                  {
                    OFFSET -2.274032 -1.383988 3.163127
                    CHANNELS 3 Zrotation Yrotation Xrotation
                    JOINT RightHandThumb2
                    {
                      OFFSET -4.011429 -1.827466 1.640914
                      CHANNELS 3 Zrotation Yrotation Xrotation
                      JOINT RightHandThumb3
                      {
                        OFFSET -2.794935 -4e-06 -3e-06
                        CHANNELS 3 Zrotation Yrotation Xrotation
                        JOINT RightHandThumbEnd
                        {
                          OFFSET -3.183852 4e-06 1e-06
                          CHANNELS 3 Zrotation Yrotation Xrotation
                        }
                      }
                    }
                  }
                  JOINT RightHandIndex1
                  {
                    OFFSET -3.253266 -0.520057 2.282866
                    CHANNELS 3 Zrotation Yrotation Xrotation
                    JOINT RightHandIndex2
                    {
                      OFFSET -6.341917 0.012471 0.178266
                      CHANNELS 3 Zrotation Yrotation Xrotation
                      JOINT RightHandIndex3
                      {
                        OFFSET -3.654871 -8e-06 -0.0
                        CHANNELS 3 Zrotation Yrotation Xrotation
                        JOINT RightHandIndex4
                        {
                          OFFSET -2.327586 0.0 1e-06
                          CHANNELS 3 Zrotation Yrotation Xrotation
                          JOINT RightHandIndexEnd
                          {
                            OFFSET -2.76179 -0.180656 -0.113078
                            CHANNELS 3 Zrotation Yrotation Xrotation
                          }
                        }
                      }
                    }
                  }
                  JOINT RightHandMiddle1
                  {
                    OFFSET -3.168106 0.246593 1.00103
                    CHANNELS 3 Zrotation Yrotation Xrotation
                    JOINT RightHandMiddle2
                    {
                      OFFSET -6.180828 -0.258836 -1.000895
                      CHANNELS 3 Zrotation Yrotation Xrotation
                      JOINT RightHandMiddle3
                      {
                        OFFSET -4.348901 0.0 -0.0
                        CHANNELS 3 Zrotation Yrotation Xrotation
                        JOINT RightHandMiddle4
                        {
                          OFFSET -3.00024 -4e-06 -2e-06
                          CHANNELS 3 Zrotation Yrotation Xrotation
                          JOINT RightHandMiddleEnd
                          {
                            OFFSET -2.30252 -0.29437 -0.031706
                            CHANNELS 3 Zrotation Yrotation Xrotation
                          }
                        }
                      }
                    }
                  }
                  JOINT RightHandRing1
                  {
                    OFFSET -2.88569 -0.067952 -0.308858
                    CHANNELS 3 Zrotation Yrotation Xrotation
                    JOINT RightHandRing2
                    {
                      OFFSET -5.854198 -0.48613 -1.373731
                      CHANNELS 3 Zrotation Yrotation Xrotation
                      JOINT RightHandRing3
                      {
                        OFFSET -4.33881 -4e-06 -0.0
                        CHANNELS 3 Zrotation Yrotation Xrotation
                        JOINT RightHandRing4
                        {
                          OFFSET -2.654903 -4e-06 4e-06
                          CHANNELS 3 Zrotation Yrotation Xrotation
                          JOINT RightHandRingEnd
                          {
                            OFFSET -1.933568 0.077527 -5.2e-05
                            CHANNELS 3 Zrotation Yrotation Xrotation
                          }
                        }
                      }
                    }
                  }
                  JOINT RightHandPinky1
                  {
                    OFFSET -2.866425 -0.342796 -1.584145
                    CHANNELS 3 Zrotation Yrotation Xrotation
                    JOINT RightHandPinky2
                    {
                      OFFSET -5.091371 -1.332055 -1.772385
                      CHANNELS 3 Zrotation Yrotation Xrotation
                      JOINT RightHandPinky3
                      {
                        OFFSET -3.062664 -4e-06 1e-06
                        CHANNELS 3 Zrotation Yrotation Xrotation
                        JOINT RightHandPinky4
                        {
                          OFFSET -1.546529 4e-06 -2e-06
                          CHANNELS 3 Zrotation Yrotation Xrotation
                          JOINT RightHandPinkyEnd
                          {
                            OFFSET -1.945119 -0.157718 0.057211
                            CHANNELS 3 Zrotation Yrotation Xrotation
                          }
                        }
                      }
                    }
                  }
                }
              }
            }
          }
        }
      }
    }
    JOINT LeftLeg
    {
      OFFSET 10.043214 -8.434526 2.595655
      CHANNELS 3 Zrotation Yrotation Xrotation
      JOINT LeftShin
      {
        OFFSET -1e-06 -43.221752 -0.802913
        CHANNELS 3 Zrotation Yrotation Xrotation
        JOINT LeftFoot
        {
          OFFSET 1e-06 -42.155094 -3.481523
          CHANNELS 3 Zrotation Yrotation Xrotation
          JOINT LeftToeBase
          {
            OFFSET 0.0 -5.059472 13.231529
            CHANNELS 3 Zrotation Yrotation Xrotation
            JOINT LeftToeEnd
            {
              OFFSET -0.009607 -1.647619 6.513017
              CHANNELS 3 Zrotation Yrotation Xrotation
            }
          }
        }
      }
    }
    JOINT RightLeg
    {
      OFFSET -10.047278 -8.29526 2.620317
      CHANNELS 3 Zrotation Yrotation Xrotation
      JOINT RightShin
      {
        OFFSET 1e-06 -43.362206 -0.805556
        CHANNELS 3 Zrotation Yrotation Xrotation
        JOINT RightFoot
        {
          OFFSET 2e-06 -42.117393 -3.478398
          CHANNELS 3 Zrotation Yrotation Xrotation
          JOINT RightToeBase
          {
            OFFSET -0.0 -5.079609 13.284196
            CHANNELS 3 Zrotation Yrotation Xrotation
            JOINT RightToeEnd
            {
              OFFSET 0.009532 -1.634378 6.460591
              CHANNELS 3 Zrotation Yrotation Xrotation
            }
          }
        }
      }
    }
  }
}
MOTION
Frames: 4
Frame Time: 0.03333333333333333
-2.866704 0.0 216.337448 0.0 -0.0 0.0 0.0 94.621239 0.0 -4.109323 4.298055 2.365876 2.040801 -0.110381 -3.081387 0.171234 -1.974775 -6.836305 1.747134 -4.317699 21.963106 0.283764 2.540024 20.223841 -1.072942 -1.023404 -3.681571 -0.926 -1.262235 -9.624328 -0.000187 -0.000505 -3e-06 -0.008462 0.040943 -0.020866 0.64889 -3.670606 -10.643609 -0.677124 3.763837 -10.677728 -8.860342 -20.025028 21.521717 -59.415905 -25.644955 18.809784 0.068182 -29.465754 -0.012312 2.399834 0.243899 -23.520782 -5.876364 9.790803 0.853249 -10.953849 -0.346525 7.194215 -0.01468 8.777598 0.006465 -16.254412 18.323776 6.192954 -1.844917 2.493249 -2.512843 -10.173561 4.709247 4.639707 -20.975058 0.017526 -0.024525 -21.234295 2.492297 -3.625497 0.00838 0.00051 0.000967 -1.368987 2.254839 -0.737977 -21.32214 0.587127 3.011221 -13.830918 0.011718 -0.000914 -23.912653 -0.25277 -0.844762 -60.268421 2.580095 -0.99309 -0.30413 1.698413 0.839092 -14.208528 0.079774 1.297776 -34.22171 -0.247372 0.959002 -20.035135 0.980418 1.219357 -0.001104 0.002607 0.00388 -3.457814 0.841653 0.500877 -15.919566 -3.218942 3.003848 -6.353992 -0.000814 0.032695 -18.113646 3.669362 -4.938141 -0.009126 -0.006451 -0.008319 16.424503 18.586641 25.629671 53.461472 21.153589 17.828604 0.261308 26.943871 0.239487 -3.818264 -5.012893 -25.835928 2.209765 -5.189732 -3.021756 14.289838 -0.845173 7.009409 0.015713 -12.700444 -0.015633 16.290802 -18.243912 2.551927 1.663715 -1.951321 -2.870518 4.733046 -4.18331 4.978397 11.023418 -0.006298 -0.000318 12.104944 -3.74787 -2.886154 -0.003179 -0.000536 -0.009636 1.298517 -1.947761 -1.505665 14.795139 0.573218 3.865515 14.256986 -1.355014 -6.679513 19.656027 0.138249 -0.676498 50.249886 -0.464403 -6.386506 0.365461 -1.542162 -0.03646 20.20443 3.698746 2.317018 18.790413 -0.020631 -0.008784 10.756927 -0.49697 1.402107 0.00724 0.006503 0.008752 3.292519 0.256648 -0.597423 21.468969 11.86747 2.286143 8.161023 -0.003129 -0.007215 18.38224 -3.819004 -4.963694 0.011582 0.004798 0.003437 6.736427 1.563049 -4.295611 -0.02374 -0.552964 61.003773 -0.600342 -7.878534 4.266452 1.779288 -1.883171 -8.15979 -0.001029 -0.001663 -0.007562 6.089421 2.545276 -31.33429 0.070278 0.078583 34.966755 -2.911261 -3.4326 -6.221406 -1.442957 0.802632 -1.030496 -2.8e-05 -9.5e-05 0.002724 
-3.087351 0.0 219.577103 0.0 -0.0 0.0 0.0 94.92926 0.0 -4.196512 4.128475 1.685988 2.239045 -0.024471 -2.843592 0.164536 -1.944583 -6.757954 1.625629 -4.078586 21.863258 0.245383 2.641206 20.260588 -1.091928 -1.082283 -3.696319 -0.968586 -1.210482 -9.736732 4e-06 0.00029 -0.003442 -0.011379 0.032999 -0.017519 0.658965 -3.683515 -10.640152 -0.6957 3.759055 -10.688219 -6.935642 -19.065453 20.425501 -59.947861 -25.057634 19.718147 0.143928 -28.335201 -0.050409 2.106441 0.440804 -23.903662 -5.864866 9.797474 0.839579 -10.921139 -0.333557 7.19451 -0.002776 8.789533 0.018456 -16.296511 18.340633 6.23945 -1.839189 2.49713 -2.529001 -10.184048 4.692889 4.624124 -21.017481 0.006605 0.002887 -21.282017 2.458353 -3.620618 0.008688 0.004571 0.006258 -1.369147 2.256851 -0.761837 -21.359116 0.581951 3.01599 -13.830918 0.002417 -0.021243 -23.970028 -0.222204 -0.865387 -60.557487 2.356733 -0.925364 -0.297645 1.702954 0.808948 -14.236648 0.067711 1.30828 -34.266251 -0.275782 0.958781 -20.067169 0.977113 1.210173 0.003067 0.004894 0.005463 -3.46475 0.827032 0.450196 -15.941094 -3.19174 3.030486 -6.334597 0.004305 -0.015383 -18.154411 3.635669 -4.891179 0.000155 0.00188 0.00791 15.340419 18.643976 25.277277 53.472729 21.674236 18.80731 0.079474 27.971355 0.167695 -3.951313 -5.137741 -26.129618 2.227444 -5.218945 -3.118202 14.268293 -0.839652 6.968612 0.010406 -12.694294 -0.004556 16.089603 -18.231709 2.659695 1.668272 -1.948948 -2.884552 4.736512 -4.178427 5.000844 11.040151 0.00196 -0.009572 12.145731 -3.746217 -2.867559 -0.005533 -0.004111 -0.000691 1.295049 -1.928369 -1.494206 14.806653 0.575241 3.858805 14.258131 -1.350309 -6.669168 19.672493 0.146671 -0.665351 50.192913 -0.530898 -6.435994 0.358352 -1.520113 -0.033228 20.238337 3.711817 2.311156 18.802483 0.000315 0.014232 10.758465 -0.48612 1.38396 0.00486 -0.00341 0.011031 3.290586 0.297661 -0.592029 21.512323 11.859569 2.272605 8.165213 0.007535 -0.006441 18.419544 -3.809134 -4.960003 0.020482 0.00854 -0.010764 7.084542 1.808446 -7.049201 -0.054153 -0.545481 66.103073 -0.58736 -6.508551 3.446021 1.727723 -1.949675 -5.15484 0.001339 0.00138 -0.012641 6.59652 2.831201 -28.369877 0.015331 0.084834 35.152691 -3.055037 -3.644624 -8.648961 -1.442995 0.817139 -0.908867 -8.4e-05 -0.000835 0.003275 
-3.270435 0.0 222.63472 0.0 -0.0 0.0 0.0 95.248863 0.0 -4.138764 3.966515 1.039151 2.386636 0.014878 -2.677633 0.135196 -1.767447 -6.692195 1.41483 -3.854893 21.811827 0.211779 2.738014 20.271915 -1.060693 -1.170557 -3.667582 -1.030663 -1.156012 -9.722086 9e-05 -0.000131 4e-06 -0.014605 0.014794 -0.013848 0.670047 -3.693156 -10.606106 -0.712911 3.733107 -10.656963 -9.172915 -19.466969 21.756283 -60.011383 -24.435734 19.81296 0.238402 -27.268782 -0.089641 1.967475 0.604939 -24.213924 -5.833228 9.832379 0.81796 -10.952617 -0.373061 7.204705 0.003913 8.773491 -5.5e-05 -16.241999 18.334629 6.287348 -1.837649 2.497321 -2.512406 -10.166619 4.686038 4.635437 -20.954859 -0.001783 -0.000174 -21.24143 2.429214 -3.613938 0.008389 -0.000537 -0.002473 -1.362634 2.239568 -0.737327 -21.328524 0.592094 2.992679 -13.823234 0.00034 0.001411 -23.873587 -0.253702 -0.847932 -60.500736 2.425639 -0.949846 -0.294488 1.688941 0.816126 -14.213841 0.084779 1.31902 -34.22694 -0.265062 0.94446 -20.05192 0.972823 1.192852 0.014708 -0.002857 0.010732 -3.445175 0.797977 0.491322 -15.922666 -3.173519 3.010221 -6.339731 0.001284 0.007737 -18.108757 3.64305 -4.921136 -0.007043 -0.003548 -0.015059 15.894507 18.727854 25.476038 53.177818 22.124815 19.304962 -0.137945 29.033669 0.081502 -4.288356 -5.135338 -26.215017 2.223162 -5.268061 -3.189952 14.304224 -0.814224 6.945705 -0.000124 -12.690198 0.000428 15.987028 -18.261711 2.725872 1.665461 -1.963585 -2.889772 4.723986 -4.170251 4.996937 11.009867 -0.003568 -0.00935 12.094919 -3.739402 -2.842525 -0.005292 -0.001134 -0.006373 1.295602 -1.937436 -1.500229 14.793036 0.566491 3.856468 14.244222 -1.350465 -6.66034 19.645452 0.133153 -0.663362 50.062576 -0.594182 -6.469369 0.355031 -1.51942 -0.035043 20.203062 3.684297 2.317694 18.770393 -0.007774 -0.000199 10.746996 -0.483718 1.386834 0.006182 0.004006 0.008297 3.279497 0.304338 -0.588636 21.464479 11.8029 2.255867 8.156989 0.003171 0.013049 18.361341 -3.816624 -4.935687 -0.002146 0.015073 0.005383 7.106259 1.864286 -10.002441 -0.092652 -0.487686 69.069992 0.013675 -4.788157 0.704375 1.697202 -1.953996 -4.564972 -0.00022 0.000217 0.008451 6.973093 3.074828 -25.327269 -0.023505 0.097903 34.794304 -3.123646 -3.727687 -10.537474 -1.443835 0.879019 -0.731873 0.001015 0.001702 0.000104 
-3.45723 0.0 225.702927 0.0 -0.0 0.0 0.0 95.571625 0.0 -4.010508 3.767306 0.449891 2.498592 0.056631 -2.561568 0.096094 -1.488261 -6.643421 1.155337 -3.608523 21.829943 0.19485 2.842618 20.451384 -1.044154 -1.299623 -3.671038 -1.045796 -1.157192 -9.619739 0.000497 8.8e-05 0.003406 -0.01666 0.000493 -0.027223 0.674549 -3.700786 -10.619605 -0.718394 3.711844 -10.659787 -6.945675 -19.061916 20.456226 -60.519924 -23.8915 19.63162 0.294896 -26.593704 -0.120034 1.998688 0.780023 -24.433802 -5.904133 9.84284 0.799215 -10.93013 -0.356443 7.179075 0.00569 8.765668 -0.016762 -16.220715 18.370003 6.275987 -1.845661 2.501498 -2.51351 -10.16074 4.671855 4.639225 -20.971569 -0.003701 -0.00119 -21.226519 2.459442 -3.567783 -0.006283 -0.012114 -0.008317 -1.355771 2.229142 -0.746247 -21.345533 0.589517 3.022966 -13.823202 -0.012127 -0.000757 -23.908737 -0.264048 -0.817169 -60.654709 2.479369 -1.031761 -0.285699 1.659442 0.845607 -14.219845 0.107165 1.299628 -34.217247 -0.295401 0.984176 -20.052473 0.962518 1.217466 0.000266 0.00097 0.00583 -3.436692 0.764194 0.488232 -15.945401 -3.150632 3.016897 -6.350475 6.2e-05 -0.006661 -18.166122 3.626474 -4.909124 -0.00273 0.011913 0.012307 15.0812 18.869295 25.151424 53.079998 22.576632 19.590067 -0.307608 30.265129 0.025095 -4.667485 -5.231895 -26.313576 2.231695 -5.236684 -3.173265 14.259254 -0.843394 6.974063 -0.01193 -12.697105 -0.004953 15.942738 -18.248541 2.742591 1.669759 -1.949261 -2.882372 4.725542 -4.171685 4.996794 11.025616 0.012009 -0.013443 12.103914 -3.723054 -2.870521 0.019227 0.003347 0.007332 1.293673 -1.932914 -1.492655 14.82064 0.589627 3.860511 14.263327 -1.342937 -6.674203 19.660666 0.149692 -0.666149 50.130783 -0.617117 -6.454732 0.351222 -1.508762 -0.032306 20.231659 3.695371 2.311668 18.803646 0.004868 -0.005533 10.753298 -0.478382 1.392347 0.008527 -1e-05 0.005003 3.281865 0.313908 -0.598923 21.510077 11.827637 2.259058 8.17241 0.005348 0.002809 18.433884 -3.76148 -4.926157 -0.021176 -0.00365 0.001467 6.815057 1.632463 -13.047464 -0.110619 -0.419403 69.419128 0.66578 -2.813349 -1.955621 1.664159 -1.923651 -4.486397 -3.4e-05 2e-06 -0.001131 7.300877 3.331582 -22.047899 -0.011361 0.100586 34.021297 -3.227154 -3.795084 -12.426042 -1.447016 0.95642 -0.561053 0.000538 -0.0048 0.000464 
